<svg width="40" height="40" viewBox="0 0 40 40" fill="none" xmlns="http://www.w3.org/2000/svg">
<path d="M33.3333 30H30V15.4167L20 21.6667L10 15.4167V30H6.66668V9.99999H8.66668L20 17.0833L31.3333 9.99999H33.3333M33.3333 6.66666H6.66668C4.81668 6.66666 3.33334 8.14999 3.33334 9.99999V30C3.33334 30.884 3.68453 31.7319 4.30965 32.357C4.93478 32.9821 5.78262 33.3333 6.66668 33.3333H33.3333C34.2174 33.3333 35.0652 32.9821 35.6904 32.357C36.3155 31.7319 36.6667 30.884 36.6667 30V9.99999C36.6667 9.11593 36.3155 8.26809 35.6904 7.64297C35.0652 7.01785 34.2174 6.66666 33.3333 6.66666Z" fill="black" fill-opacity="0.55"/>
</svg>
