<svg width="104" height="69" viewBox="0 0 104 69" fill="none" xmlns="http://www.w3.org/2000/svg">
<g clip-path="url(#clip0_81_187)">
<path d="M101.718 0.0016515C100.111 0.0531986 100.619 0.515905 97.1458 1.36948C93.639 2.23198 89.3547 1.96775 85.5782 3.54988C74.3048 8.27394 72.0423 24.4191 61.7935 30.2025C54.1324 34.526 46.4035 34.8706 39.4546 37.0461C34.8879 38.4769 29.8923 41.411 25.7546 44.973C22.5432 47.7395 22.4595 50.1716 19.1039 53.6406C15.5143 57.3516 4.83844 53.7035 0 59.3831C1.55878 60.9575 2.24209 61.3987 5.31375 60.9904C4.67756 62.1942 0.929094 63.2089 1.66278 64.9806C2.43466 66.8448 11.4981 68.1083 19.7364 63.1387C23.5731 60.8243 26.6293 57.4888 32.6048 56.6925C40.3374 55.6627 49.2448 57.3528 58.1969 58.6427C56.8693 62.5968 54.2047 65.2261 52.0699 68.3754C51.4089 69.0869 53.3975 69.1664 55.6664 68.7366C59.748 67.7284 62.6893 66.9162 65.7698 65.1251C69.5537 62.924 70.1273 57.2814 74.7703 56.0605C77.3573 60.0329 84.3932 60.9717 88.7591 57.7936C84.9282 56.7103 83.8695 48.5634 85.1626 44.9734C86.3874 41.575 87.5977 36.139 88.8314 31.6471C90.1558 26.8228 90.6445 20.7422 92.2472 18.2846C94.6591 14.5874 97.3237 13.3178 99.6369 11.2328C101.95 9.14821 104.068 7.1188 103.998 2.34806C103.976 0.811793 103.181 -0.0446191 101.718 0.00205738V0.0016515Z" fill="#002B64"/>
<path d="M98.2739 2.82825C98.6594 4.14006 99.2619 4.74239 101.867 4.98308C101.487 8.2829 99.2834 10.0883 96.813 11.8198C94.6388 13.343 92.2573 14.8099 90.727 17.1896C89.1589 19.6269 88.1636 27.9694 85.7326 36.208C83.631 43.3268 80.4578 50.3652 74.9162 53.4495C74.3372 51.9936 74.9901 49.3062 73.8384 48.423C73.0933 50.5462 72.2512 52.572 71.2644 54.4544C68.0128 60.6644 63.1983 65.3134 55.1525 66.7332C58.97 61.572 62.6202 56.2424 62.6994 47.347C60.0129 47.9275 60.0698 54.2682 57.3093 55.9631C55.5397 56.1555 53.7465 56.1543 51.9427 56.0459C44.5327 55.6023 36.931 53.3772 29.9991 55.5994C25.2793 57.113 21.4191 60.6831 17.4224 62.415C12.725 64.4505 9.16744 65.2874 3.31825 64.4505C2.57522 63.4508 7.59931 62.1613 7.29869 59.9907C5.00947 59.7378 3.68022 60.2919 1.69 59.3888C1.90978 58.9841 2.23275 58.6472 2.63941 58.3667C6.28672 55.8442 16.6469 57.7709 19.4192 55.0507C21.1307 53.3732 22.2536 51.6169 23.4163 49.9102C24.5436 48.2538 25.7087 46.6437 27.4844 45.1922C28.1698 44.6348 28.8786 44.1069 29.6091 43.6101C32.6349 41.5413 36.3781 39.6649 40.0619 38.3714C45.0795 36.609 50.1646 36.4637 55.5132 34.4221C58.8173 33.1602 62.4106 31.6021 65.3392 29.4217C66.0289 28.9106 66.6842 28.3548 67.301 27.7579C75.6641 19.6127 77.322 5.24446 90.3699 3.90546C91.9478 3.74392 93.2393 3.79587 94.4153 3.76056C95.7702 3.71997 96.9698 3.56289 98.2739 2.82825V2.82825ZM82.3676 48.8147C82.5232 51.3044 83.9702 56.2448 85.2475 57.4454C82.7458 58.053 78.4367 57.0489 77.3313 55.2861C77.8993 52.7408 80.8551 50.4139 82.3676 48.8143V48.8147Z" fill="#C49A6C"/>
<path d="M99.214 5.61615C98.711 6.67023 97.7482 8.02872 97.7482 10.7116C97.7442 11.1723 97.398 11.4876 97.3923 10.7778C97.4183 8.15576 98.113 7.02213 98.8508 5.53254C99.1937 4.92209 99.4004 5.17374 99.214 5.61615V5.61615ZM98.7074 5.2192C98.1142 6.22498 96.6859 8.05875 96.4494 10.7315C96.406 11.1901 96.033 11.4734 96.0895 10.7652C96.3471 8.15616 97.4886 6.5233 98.3552 5.10352C98.748 4.52636 98.9328 4.79505 98.7074 5.2192V5.2192ZM98.2459 4.69317C97.5699 5.64497 95.3713 7.84769 94.9114 10.4916C94.8285 10.9438 94.4332 11.1962 94.5498 10.4953C95.0251 7.91629 96.9207 5.88931 97.9034 4.54909C98.3438 4.0052 98.5047 4.28932 98.2459 4.69317ZM97.8339 4.10627L97.6113 4.3429C96.6282 5.39576 94.3442 7.96418 93.5833 10.3155C93.4371 10.7518 93.0101 10.9462 93.2242 10.268C94.0578 7.78153 96.3536 5.10352 97.515 3.91469C98.0281 3.439 98.1472 3.7426 97.8339 4.10627V4.10627ZM86.0324 9.42942C86.5418 7.24333 88.2436 6.2473 91.1812 6.49002C91.8901 9.75331 87.9231 11.0696 86.0324 9.42942Z" fill="#002B64"/>
</g>
<defs>
<clipPath id="clip0_81_187">
<rect width="104" height="69" fill="white"/>
</clipPath>
</defs>
</svg>
