<svg width="113" height="84" viewBox="0 0 113 84" fill="none" xmlns="http://www.w3.org/2000/svg">
<path d="M97.3018 48.2885C93.3598 48.3087 89.9334 49.2498 87.0647 50.641C86.0117 48.5745 84.9591 46.7336 84.7737 45.3831C84.567 43.808 84.3195 42.8463 84.567 40.964C84.8148 39.0818 85.9294 36.4015 85.9086 36.197C85.8882 35.9926 85.6607 35.0309 83.3905 35.0107C81.1202 34.9901 79.1594 35.4402 78.9323 36.0334C78.7052 36.6266 78.2719 37.977 77.9829 39.3679C77.5907 41.4142 73.4424 48.7176 71.069 52.5435C70.305 51.0504 69.6446 49.7407 69.4999 48.6974C69.2936 47.1223 69.0458 46.1606 69.2936 44.2783C69.5415 42.3961 70.6561 39.7162 70.6352 39.5113C70.6144 39.3069 70.3874 38.3452 68.1171 38.325C65.8464 38.3043 63.8856 38.7545 63.659 39.3477C63.4319 39.9413 63.184 41.3321 62.7095 42.6826C62.2346 44.0331 56.7239 56.2267 55.2791 59.3769C54.6953 60.652 54.0828 61.914 53.4422 63.162C53.4422 63.162 53.4214 63.2234 53.3595 63.3257C53.1582 63.717 52.9519 64.1057 52.7407 64.4919V64.512C52.4308 65.0649 52.1006 65.576 51.9355 65.576C51.8116 65.576 51.5845 64.1031 51.9767 62.098C52.8022 57.8633 54.763 51.2755 54.7427 51.0504C54.7427 50.9275 55.114 49.782 53.463 49.1884C51.8528 48.5952 51.2751 49.5771 51.1304 49.5771C50.9861 49.5771 50.8825 49.925 50.8825 49.925C50.8825 49.925 52.6787 42.519 47.4566 42.519C44.1957 42.519 39.696 46.0583 37.4669 49.2498C34.9329 50.6167 32.4011 51.9875 29.8714 53.3622C28.6542 54.0374 27.3949 54.7126 26.2184 55.3466C26.1356 55.265 26.0533 55.1623 25.9705 55.0807C19.6546 48.3907 7.97278 43.6645 8.46808 34.6834C8.65399 31.4099 9.78889 22.817 30.9036 12.3832C48.2821 3.89252 62.1111 6.24509 64.5053 11.4622C67.9312 18.9095 57.0957 32.7397 39.1387 34.7444C32.2864 35.5016 28.6949 32.8828 27.787 31.9008C26.8376 30.8777 26.6929 30.8162 26.3419 31.0211C25.7642 31.3283 26.1356 32.2488 26.3419 32.7805C26.8788 34.1713 29.087 36.6266 32.8228 37.834C36.1253 38.8975 44.1541 39.4912 53.8756 35.7675C64.7527 31.5937 73.2565 19.9937 70.7592 10.2759C68.2614 0.414573 51.7496 -2.8383 36.1253 2.66491C26.8376 5.93884 16.7652 11.0941 9.52065 17.8048C0.913742 25.7834 -0.448668 32.7191 0.108601 35.6245C2.11105 45.9355 16.4558 52.6461 22.1935 57.6176C21.9045 57.7812 21.6358 57.9247 21.4092 58.0475C18.5401 59.459 7.60097 65.1258 4.87659 71.1204C1.78085 77.9127 5.37234 82.7823 7.74571 83.4365C15.1141 85.4622 22.6888 81.8206 26.7548 75.8054C30.8208 69.7906 30.3255 61.9752 28.4474 58.395C28.4266 58.3542 28.4063 58.313 28.3647 58.2722C29.1078 57.8426 29.8714 57.3925 30.6146 56.963C31.9804 56.1626 33.3637 55.3917 34.7633 54.6508C34.0613 56.5536 33.5452 58.8246 33.2978 62.098C32.9879 65.9445 34.577 70.9362 36.6617 72.9C37.5908 73.7599 38.6846 73.7801 39.3866 73.7801C41.8219 73.7801 42.9161 71.7751 44.1338 69.4019C45.6197 66.4969 46.9613 63.1212 46.9613 63.1212C46.9613 63.1212 45.2895 72.2458 49.8304 72.2458C51.4814 72.2458 53.1532 70.1179 53.8964 69.0338V69.0539C53.8964 69.0539 53.9375 68.9925 54.0203 68.8495C54.1854 68.5836 54.2885 68.4195 54.2885 68.4195V68.3792C54.9489 67.2331 56.4353 64.6349 58.6436 60.3181C61.4919 54.7534 64.2371 47.7975 64.2371 47.7975C64.2371 47.7975 64.4849 49.4955 65.3308 52.3188C65.8265 53.976 66.8579 55.7968 67.6838 57.5561C67.0234 58.4771 66.6104 58.9882 66.6104 58.9882L66.6312 59.0088C66.0943 59.7042 65.5167 60.4611 64.8766 61.1982C62.6268 63.8574 59.944 66.9063 59.5722 67.7855C59.1384 68.8289 59.242 69.5861 60.0679 70.2C60.6664 70.6501 61.7393 70.7111 62.8335 70.6501C64.8563 70.5066 66.2802 70.0157 66.9818 69.709C68.076 69.3203 69.3556 68.7266 70.5525 67.847C72.7612 66.2306 74.1024 63.9189 73.9789 60.8709C73.9169 59.1931 73.3596 57.5153 72.6784 55.9398C72.8851 55.6537 73.0706 55.3672 73.2773 55.0807C76.7652 50.0272 79.4692 44.4828 79.4692 44.4828C79.4692 44.4828 79.7171 46.1807 80.563 49.0045C80.9759 50.4366 81.8222 51.9915 82.565 53.5052C79.2833 56.1447 77.2605 59.2133 76.5381 61.2184C75.2381 64.942 76.2491 66.6193 78.1688 67.0081C79.0354 67.1923 80.2739 66.783 81.1822 66.3943C82.3379 66.0262 83.7003 65.3922 85.0008 64.4506C87.2095 62.8347 89.335 60.5839 89.211 57.536C89.1491 56.1447 88.7777 54.7736 88.2616 53.4438C91.0479 52.2986 94.6394 51.6642 99.2211 52.196C109.046 53.3415 110.986 59.4177 110.614 61.9756C110.243 64.5327 108.179 65.9239 107.498 66.3535C106.817 66.7834 106.59 66.9265 106.652 67.2331C106.734 67.6833 107.064 67.6631 107.643 67.5811C108.448 67.438 112.803 65.5146 112.988 60.809C113.298 54.7942 107.519 48.2271 97.3018 48.2885V48.2885ZM21.5123 73.6165C18.2511 77.1352 13.7106 78.4651 11.7497 77.3401C9.64459 76.1327 10.4701 70.9362 14.4741 67.213C16.9094 64.942 20.0468 62.8343 22.1316 61.5457C22.6061 61.2592 23.3081 60.8503 24.1544 60.3387C24.2987 60.2566 24.3815 60.2158 24.3815 60.2158L24.8768 59.9087C26.3419 65.2281 24.9387 69.9135 21.5123 73.6165V73.6165ZM45.2483 57.6176C44.113 60.3593 41.7396 67.3766 40.2948 66.9879C39.0564 66.6606 38.2924 61.3412 40.047 56.0833C40.9344 53.4438 42.8125 50.2931 43.9067 49.0659C45.6816 47.1017 47.6425 46.4466 48.117 47.2451C48.7158 48.2885 45.9499 55.899 45.2483 57.6176V57.6176ZM64.8355 66.9058C64.3605 67.1515 63.9069 67.3152 63.7001 67.1923C63.5558 67.1103 63.9069 66.783 63.9069 66.783C63.9069 66.783 66.363 64.1645 67.3328 62.9777C67.8905 62.2823 68.5505 61.4641 69.2525 60.5431V60.809C69.2525 63.9395 66.1975 66.0468 64.835 66.9058H64.8355ZM79.9437 63.4893C79.5927 63.2436 79.6547 62.4254 80.8312 59.8679C81.2853 58.8654 82.3583 57.188 84.1956 55.5717C84.4019 56.2263 84.5466 56.8607 84.5258 57.4539C84.505 61.4026 81.6571 62.8755 79.9437 63.4893Z" fill="#CD6799"/>
</svg>
