<svg width="93" height="93" viewBox="0 0 93 93" fill="none" xmlns="http://www.w3.org/2000/svg">
<path d="M46.4913 0C42.351 10.1486 39.8541 16.7872 35.2445 26.634C38.0708 29.6292 41.5398 33.1171 47.1735 37.0565C41.1165 34.5648 36.9853 32.0628 33.8978 29.4668C27.9981 41.7744 18.7562 59.3057 0 93C14.7416 84.4912 26.169 79.2451 36.8186 77.2434C36.3376 75.1739 36.1027 73.0549 36.1189 70.9303L36.1367 70.458C36.3706 61.0156 41.2836 53.7544 47.1034 54.247C52.9232 54.7399 57.4471 62.7993 57.2135 72.2421C57.1692 74.0186 56.9687 75.7282 56.6185 77.3135C67.1529 79.3733 78.4579 84.606 93 93C90.1326 87.7219 87.5733 82.964 85.1291 78.4324C81.2791 75.4492 77.2634 71.5664 69.0721 67.3632C74.7023 68.8254 78.7336 70.5129 81.8756 72.3994C57.0254 26.141 55.0131 19.9943 46.4913 0Z" fill="#1793D1"/>
</svg>
