<svg width="84" height="84" viewBox="0 0 84 84" fill="none" xmlns="http://www.w3.org/2000/svg">
<g clip-path="url(#clip0_81_219)">
<path d="M57.75 2.625L5.25 7.875L15.75 19.6875V76.125L19.6875 80.0625L78.75 76.125L77.4375 14.4375L57.75 2.625Z" fill="white"/>
<path d="M15.6135 14.7237C18.2122 16.8421 19.1966 16.6924 24.1027 16.3643L70.3552 13.5897C71.3396 13.5897 70.5206 12.6053 70.1899 12.4399L62.5065 6.88806C61.0444 5.73831 59.0756 4.44156 55.314 4.75394L10.5394 8.03519C8.89874 8.18481 8.57061 9.00644 9.22686 9.66269L15.6135 14.7237ZM18.3881 25.5124V74.1694C18.3881 76.7813 19.6875 77.7657 22.6275 77.6003L73.4606 74.6603C76.4006 74.4949 76.7419 72.7047 76.7419 70.5732V22.2443C76.7419 20.1102 75.9202 18.9762 74.1169 19.1416L21.0026 22.2443C19.0339 22.4097 18.3907 23.3783 18.3907 25.4993L18.3881 25.5124ZM68.565 28.1086C68.8931 29.5864 68.565 31.0486 67.0871 31.2271L64.6406 31.7206V67.6358C62.5065 68.7856 60.5535 69.4418 58.926 69.4418C56.301 69.4418 55.6447 68.6202 53.6891 66.1737L37.6661 41.0183V65.3547L42.7376 66.5044C42.7376 66.5044 42.7376 69.4444 38.6505 69.4444L27.3709 70.1007C27.0427 69.4444 27.3709 67.8038 28.5206 67.4888L31.4606 66.6672V34.4978L27.3735 34.1697C27.0454 32.6918 27.867 30.5734 30.1481 30.4107L42.2467 29.5891L58.926 55.0726V32.5264L54.6735 32.0329C54.3454 30.2427 55.6447 28.9302 57.2854 28.7779L68.565 28.1086ZM6.78036 3.62256L53.361 0.191686C59.0756 -0.301814 60.5535 0.0263106 64.1471 2.63819L79.023 13.0962C81.4695 14.8864 82.2911 15.3799 82.2911 17.3356V74.6629C82.2911 78.2592 80.9786 80.3776 76.4111 80.7057L22.2967 83.9738C18.879 84.1392 17.2384 83.6457 15.4324 81.3619L4.48086 67.1423C2.52524 64.5304 1.70624 62.5748 1.70624 60.2937V9.33981C1.70624 6.39981 3.01874 3.95331 6.77774 3.62519L6.78036 3.62256Z" fill="black"/>
</g>
<defs>
<clipPath id="clip0_81_219">
<rect width="84" height="84" fill="white"/>
</clipPath>
</defs>
</svg>
