<svg width="96" height="96" viewBox="0 0 96 96" fill="none" xmlns="http://www.w3.org/2000/svg">
<path d="M0 83.6216C0 90.4586 5.54212 96 12.3784 96H83.6213C90.4586 96 96 90.4579 96 83.6216V12.3787C96 5.54137 90.4579 0 83.6216 0H12.3787C5.54137 0 0 5.54212 0 12.3784V83.6213V83.6216Z" fill="#563D7C"/>
<path d="M39.8092 42.4642V28.8694H51.7759C52.9159 28.8694 54.0146 28.9643 55.0729 29.1544C56.1311 29.3441 57.0675 29.6831 57.8816 30.1718C58.6954 30.6604 59.3467 31.3388 59.8354 32.2069C60.3236 33.0754 60.5681 34.188 60.5681 35.5444C60.5681 37.9868 59.8354 39.7508 58.3699 40.836C56.9047 41.9216 55.0324 42.4642 52.7527 42.4642H39.8092V42.4642ZM27.0281 18.9375V77.0625H55.1951C57.8002 77.0625 60.3375 76.737 62.8069 76.0856C65.2762 75.4343 67.4741 74.4304 69.4009 73.0736C71.3272 71.7169 72.8606 69.9664 74.0002 67.8229C75.1402 65.679 75.7099 63.1418 75.7099 60.2111C75.7099 56.5748 74.8279 53.4679 73.0642 50.8901C71.3002 48.312 68.6272 46.5075 65.0452 45.4762C67.6504 44.2282 69.618 42.627 70.9477 40.6732C72.2771 38.7195 72.942 36.2775 72.942 33.3465C72.942 30.633 72.4942 28.3538 71.5987 26.5084C70.7032 24.6634 69.4414 23.1844 67.8131 22.0718C66.1853 20.9591 64.2315 20.1585 61.9519 19.6702C59.6726 19.1816 57.1489 18.9375 54.381 18.9375H27.0281V18.9375ZM39.8092 67.1306V51.1748H53.7296C56.4975 51.1748 58.7227 51.8122 60.4054 53.088C62.0876 54.3634 62.9291 56.4934 62.9291 59.4784C62.9291 60.9982 62.6711 62.2463 62.1555 63.2231C61.6399 64.2 60.948 64.9736 60.0795 65.5432C59.2114 66.1132 58.2071 66.5201 57.0675 66.7646C55.9275 67.0084 54.7339 67.1306 53.4855 67.1306H39.8092V67.1306Z" fill="white"/>
</svg>
