<svg width="694" height="650" viewBox="0 0 684 780" fill="none" xmlns="http://www.w3.org/2000/svg">
<path fill-rule="evenodd" clip-rule="evenodd" d="M375.676 0.587806C463.051 4.78216 554.961 37.5882 608.31 105.89C657.637 169.042 624.493 258.715 638.583 337.182C649.911 400.267 692.188 456.225 682.595 519.589C671.968 589.787 638.085 656.776 583.233 702.788C525.783 750.978 449.693 791.469 375.676 777.039C303.936 763.054 281.589 671.336 220.297 632.036C153.234 589.035 36.3152 612.602 5.66119 539.786C-24.3683 468.454 73.9079 405.793 93.5841 331.041C115.38 248.238 70.08 148.203 125.967 82.7353C183.866 14.9095 285.827 -3.72532 375.676 0.587806ZM379.785 122.399C439.043 125.243 501.377 147.493 537.559 193.815C571.013 236.645 548.535 297.462 558.09 350.679C565.773 393.463 594.446 431.414 587.94 474.388C580.732 521.996 557.752 567.429 520.551 598.634C481.589 631.317 429.984 658.778 379.785 648.992C331.131 639.507 315.975 577.304 274.406 550.65C228.924 521.487 149.629 537.47 128.839 488.086C108.473 439.708 175.125 397.211 188.469 346.514C203.251 290.356 172.529 222.512 210.431 178.111C249.699 132.112 318.849 119.473 379.785 122.399Z" fill="#FF934D"/>
</svg>
