<svg width="93" height="93" viewBox="0 0 93 93" fill="none" xmlns="http://www.w3.org/2000/svg">
<path d="M17.1527 79.0529L10.6252 5.8125H82.3747L75.8386 79.0413L46.4564 87.1875L17.1527 79.0529Z" fill="#1572B6"/>
<path d="M46.5 80.9623L70.2441 74.3796L75.8299 11.8022H46.5V80.9623Z" fill="#33A9DC"/>
<path d="M46.5 38.3363H58.3866L59.2061 29.138H46.5V20.1548H69.0234L68.8084 22.5641L66.6025 47.3195H46.5V38.3363Z" fill="white"/>
<path d="M46.5552 61.6647L46.5145 61.6763L36.5112 58.9735L35.8719 51.8096H26.8538L28.1122 65.9136L46.5116 71.0228L46.5552 71.0112V61.6647Z" fill="#EBEBEB"/>
<path d="M57.6222 46.939L56.5411 58.9679L46.5233 61.6707V71.0173L64.9373 65.9139L65.0739 64.3968L66.6345 46.939H57.6222Z" fill="white"/>
<path d="M46.532 20.1548V29.138H24.8339L24.6537 27.1182L24.2439 22.5641L24.0289 20.1548H46.532ZM46.5 38.3363V47.3195H36.6217L36.4415 45.2997L36.0346 40.7456L35.8195 38.3363H46.5Z" fill="#EBEBEB"/>
</svg>
