<svg width="63" height="94" viewBox="0 0 63 94" fill="none" xmlns="http://www.w3.org/2000/svg">
<path d="M15.75 93.9998C24.444 93.9998 31.5 86.9812 31.5 78.3332V62.6665H15.75C7.056 62.6665 0 69.6852 0 78.3332C0 86.9812 7.056 93.9998 15.75 93.9998Z" fill="#0ACF83"/>
<path d="M0 47.0002C0 38.3522 7.056 31.3335 15.75 31.3335H31.5V62.6668H15.75C7.056 62.6668 0 55.6482 0 47.0002Z" fill="#A259FF"/>
<path d="M0 15.6667C0 7.01867 7.056 0 15.75 0H31.5V31.3333H15.75C7.056 31.3333 0 24.3147 0 15.6667Z" fill="#F24E1E"/>
<path d="M31.5 0H47.25C55.944 0 63 7.01867 63 15.6667C63 24.3147 55.944 31.3333 47.25 31.3333H31.5V0Z" fill="#FF7262"/>
<path d="M63 47.0002C63 55.6482 55.944 62.6668 47.25 62.6668C38.556 62.6668 31.5 55.6482 31.5 47.0002C31.5 38.3522 38.556 31.3335 47.25 31.3335C55.944 31.3335 63 38.3522 63 47.0002Z" fill="#1ABCFE"/>
</svg>
