<svg width="102" height="102" viewBox="0 0 102 102" fill="none" xmlns="http://www.w3.org/2000/svg">
<path d="M100.077 46.4562L55.5423 1.92359C52.9791 -0.641197 48.8194 -0.641197 46.2531 1.92359L37.0054 11.1715L48.7366 22.9029C51.4627 21.9817 54.5888 22.5997 56.7619 24.7728C58.9454 26.9599 59.559 30.1128 58.6155 32.8477L69.9211 44.154C72.6564 43.2116 75.8124 43.8213 77.9971 46.0095C81.0503 49.0616 81.0503 54.0083 77.9971 57.0624C74.9431 60.1169 69.9964 60.1169 66.9408 57.0624C64.6442 54.7634 64.0768 51.3905 65.2395 48.5612L54.696 38.0175L54.6948 65.764C55.4591 66.1419 56.1572 66.6412 56.7619 67.2423C59.8151 70.2943 59.8151 75.2414 56.7619 78.2979C53.7079 81.3508 48.7589 81.3508 45.7092 78.2979C42.656 75.2414 42.656 70.2947 45.7092 67.2427C46.4409 66.5106 47.3105 65.9308 48.2676 65.5369V37.5318C47.3091 37.1405 46.439 36.5604 45.7092 35.8261C43.3959 33.5159 42.8397 30.1215 44.025 27.281L32.4608 15.7154L1.92446 46.2502C-0.641486 48.8174 -0.641486 52.9775 1.92446 55.5427L46.4595 100.076C49.0234 102.641 53.1823 102.641 55.7495 100.076L100.076 55.7495C102.641 53.1835 102.641 49.021 100.076 46.4562" fill="#DE4C36"/>
</svg>
