<svg width="34" height="33" viewBox="0 0 34 33" fill="none" xmlns="http://www.w3.org/2000/svg">
<path d="M17.0017 0.333344C7.79333 0.333344 0.334998 7.79168 0.334998 17C0.33198 20.4988 1.43126 23.9097 3.47675 26.7483C5.52225 29.587 8.41 31.7091 11.73 32.8133C12.5633 32.9583 12.8767 32.4583 12.8767 32.02C12.8767 31.625 12.855 30.3133 12.855 28.9167C8.66833 29.6883 7.585 27.8967 7.25167 26.9583C7.06333 26.4783 6.25166 25 5.54333 24.6033C4.96 24.2917 4.12666 23.52 5.52166 23.5C6.835 23.4783 7.77167 24.7083 8.085 25.2083C9.585 27.7283 11.98 27.02 12.9383 26.5833C13.085 25.5 13.5217 24.7717 14.0017 24.355C10.2933 23.9383 6.41833 22.5 6.41833 16.125C6.41833 14.3117 7.06333 12.8133 8.12667 11.6467C7.96 11.23 7.37667 9.52168 8.29333 7.23001C8.29333 7.23001 9.68833 6.79168 12.8767 8.93668C14.2336 8.56108 15.6354 8.37212 17.0433 8.37501C18.46 8.37501 19.8767 8.56168 21.21 8.93668C24.3983 6.77001 25.7933 7.23001 25.7933 7.23001C26.71 9.52168 26.1267 11.23 25.96 11.6467C27.0217 12.8133 27.6683 14.2917 27.6683 16.125C27.6683 22.5217 23.7733 23.9383 20.065 24.355C20.6683 24.875 21.19 25.875 21.19 27.4383C21.19 29.6667 21.1683 31.4583 21.1683 32.0217C21.1683 32.4583 21.4817 32.9783 22.315 32.8117C25.6225 31.6935 28.4964 29.5668 30.5326 26.7307C32.5688 23.8945 33.6648 20.4914 33.6667 17C33.6667 7.79168 26.2083 0.333344 17 0.333344" fill="black" fill-opacity="0.55"/>
</svg>
