<svg width="94" height="91" viewBox="0 0 94 91" fill="none" xmlns="http://www.w3.org/2000/svg">
<path fill-rule="evenodd" clip-rule="evenodd" d="M47 0C21.0325 0 0 20.8763 0 46.6509C0 67.2939 13.4538 84.7296 32.1363 90.9109C34.4863 91.3191 35.3675 89.9195 35.3675 88.695C35.3675 87.587 35.3088 83.9132 35.3088 80.0062C23.5 82.1638 20.445 77.1489 19.505 74.5248C18.9763 73.1835 16.685 69.0433 14.6875 67.9353C13.0425 67.0606 10.6925 64.903 14.6287 64.8447C18.33 64.7864 20.9738 68.2269 21.855 69.6264C26.085 76.6824 32.8412 74.6997 35.5437 73.4751C35.955 70.4428 37.1888 68.4018 38.54 67.2356C28.0825 66.0693 17.155 62.0457 17.155 44.2017C17.155 39.1284 18.9763 34.9298 21.9725 31.6643C21.5025 30.498 19.8575 25.7163 22.4425 19.3018C22.4425 19.3018 26.3787 18.0772 35.3675 24.0835C39.1275 23.0339 43.1225 22.509 47.1175 22.509C51.1125 22.509 55.1075 23.0339 58.8675 24.0835C67.8563 18.0189 71.7925 19.3018 71.7925 19.3018C74.3775 25.7163 72.7325 30.498 72.2625 31.6643C75.2588 34.9298 77.08 39.0701 77.08 44.2017C77.08 62.104 66.0938 66.0693 55.6363 67.2356C57.34 68.6934 58.8088 71.4925 58.8088 75.866C58.8088 82.1055 58.75 87.1205 58.75 88.695C58.75 89.9195 59.6313 91.3774 61.9813 90.9109C71.3114 87.7842 79.419 81.8322 85.1627 73.8925C90.9064 65.9529 93.9972 56.4253 94 46.6509C94 20.8763 72.9675 0 47 0Z" fill="white"/>
</svg>
