<svg width="27" height="27" viewBox="0 0 27 27" fill="none" xmlns="http://www.w3.org/2000/svg">
<path d="M13.8 0.958618C10.6735 0.958548 7.64896 2.07105 5.26768 4.09703C2.8864 6.12302 1.30377 8.93027 0.803008 12.0164C0.302242 15.1026 0.916021 18.2662 2.53451 20.9412C4.153 23.6162 6.67056 25.628 9.63669 26.6165C10.295 26.7324 10.5412 26.3374 10.5412 25.9911C10.5412 25.679 10.5254 24.6415 10.5254 23.5395C7.21665 24.1478 6.36082 22.7323 6.09749 21.9924C5.80537 21.2718 5.34216 20.6333 4.7479 20.1319C4.28707 19.8857 3.62874 19.2761 4.73079 19.2603C5.15196 19.3059 5.55594 19.4523 5.90846 19.6873C6.26098 19.9222 6.55165 20.2387 6.75582 20.6099C6.93585 20.9334 7.17794 21.2181 7.46822 21.4479C7.75851 21.6776 8.09127 21.8478 8.44745 21.9487C8.80363 22.0496 9.17622 22.0793 9.54388 22.0359C9.91153 21.9926 10.267 21.8771 10.59 21.6961C10.647 21.0264 10.9455 20.4003 11.43 19.9344C8.5004 19.6053 5.43915 18.4703 5.43915 13.434C5.4205 12.1252 5.90338 10.8589 6.78874 9.89484C6.38625 8.75752 6.43334 7.50942 6.9204 6.40567C6.9204 6.40567 8.02245 6.0607 10.5412 7.75526C12.6957 7.16269 14.9701 7.16269 17.1246 7.75526C19.642 6.04359 20.7454 6.40567 20.7454 6.40567C21.2326 7.50939 21.2797 8.75754 20.8771 9.89484C21.7651 10.8573 22.2484 12.1247 22.2267 13.434C22.2267 18.4861 19.1483 19.6053 16.2187 19.9344C16.5329 20.2529 16.775 20.6353 16.9283 21.0556C17.0817 21.4759 17.1428 21.9243 17.1075 22.3703C17.1075 24.132 17.0917 25.5474 17.0917 25.9911C17.0917 26.3374 17.3379 26.7482 17.9962 26.6165C20.9569 25.6197 23.4669 23.6032 25.0783 20.9269C26.6897 18.2506 27.2976 15.0887 26.7934 12.0057C26.2892 8.92269 24.7057 6.1192 22.3257 4.09568C19.9457 2.07216 16.924 0.960317 13.8 0.958618Z" fill="black"/>
</svg>
