<svg width="108" height="108" viewBox="0 0 108 108" fill="none" xmlns="http://www.w3.org/2000/svg">
<g clip-path="url(#clip0_81_254)">
<path d="M47.4323 60.5914C47.4323 60.3229 47.5389 60.0653 47.7288 59.8755C47.9187 59.6856 48.1762 59.5789 48.4448 59.5789H52.9234C53.1627 59.5797 53.394 59.6652 53.5762 59.8203C53.7585 59.9753 53.8799 60.1899 53.919 60.426C54.594 64.9857 56.619 67.284 65.7754 67.284C73.0687 67.284 76.1771 65.6337 76.1771 61.7625C76.1771 59.5317 75.2962 57.8745 63.9596 56.7642C54.4826 55.8259 48.6236 53.7267 48.6236 46.1532C48.6236 39.1669 54.513 34.9988 64.3849 34.9988C75.4785 34.9988 80.9696 38.8497 81.6649 47.1117C81.6755 47.2496 81.6577 47.3882 81.6127 47.519C81.5676 47.6498 81.4963 47.77 81.403 47.8722C81.3097 47.9743 81.1964 48.0563 81.0702 48.113C80.9441 48.1697 80.8076 48.1999 80.6692 48.2018H76.1602C75.934 48.1986 75.7154 48.1198 75.5392 47.9779C75.3631 47.836 75.2395 47.6391 75.1882 47.4188C74.1116 42.6229 71.4757 41.0907 64.3882 41.0907C56.4232 41.0907 55.4985 43.8649 55.4985 45.9439C55.4985 48.4617 56.592 49.1974 67.3448 50.6183C77.9861 52.0257 83.0419 54.0169 83.0419 61.4959C83.0419 69.0424 76.7509 73.3624 65.7787 73.3624C50.6081 73.3827 47.4323 66.4268 47.4323 60.5914V60.5914Z" fill="#83CD29"/>
<path d="M20.7662 91.9592L13.2555 7.72363H95.783L88.2622 91.9458L54.4691 101.315L20.7662 91.9592Z" fill="#E44F26"/>
<path d="M54.5192 94.1552L81.8278 86.5843L88.2522 14.6125H54.5192V94.1552Z" fill="#F1662A"/>
<path d="M54.5192 45.8521H40.8482L39.9056 35.273H54.5192V24.9412H28.6145L28.8618 27.7155L31.3988 56.184H54.5192V45.8521V45.8521ZM54.5192 72.6828L54.4724 72.6961L42.9674 69.5909L42.232 61.3515H31.8601L33.3074 77.5696L54.4724 83.4458L54.5192 83.4324V72.6828Z" fill="#EBEBEB"/>
<path d="M54.4825 45.8521V56.184H67.2042L66.0076 69.5842L54.4825 72.6928V83.4424L75.6642 77.5696L75.8179 75.8248L78.2446 48.6265L78.4987 45.8521H54.4825V45.8521ZM54.4825 24.9412V35.273H79.4379L79.6452 32.9532L80.1165 27.7155L80.3638 24.9412H54.4825V24.9412Z" fill="white"/>
</g>
<defs>
<clipPath id="clip0_81_254">
<rect width="108" height="108" fill="white"/>
</clipPath>
</defs>
</svg>
