<svg width="92" height="92" viewBox="0 0 92 92" fill="none" xmlns="http://www.w3.org/2000/svg">
<path d="M5.75 5.75H86.25V86.25H5.75V5.75Z" fill="#F5DE19"/>
<path d="M59.8259 68.6404C60.5117 70.0336 61.5774 71.2047 62.8999 72.0185C64.2224 72.8324 65.7481 73.256 67.3009 73.2404C70.4346 73.2404 72.4385 71.6735 72.4385 69.5029C72.4385 66.9154 70.38 65.9897 66.93 64.4803L65.0382 63.6695C59.5757 61.3437 55.9532 58.4313 55.9532 52.273C55.9532 46.6007 60.2657 42.2795 67.0306 42.2795C69.2205 42.1214 71.4085 42.6115 73.3217 43.6888C75.2349 44.766 76.7885 46.3827 77.7889 48.3372L71.875 52.1178C71.4898 51.1487 70.8191 50.3196 69.9519 49.7404C69.0847 49.1612 68.0619 48.8593 67.0191 48.8748C66.5642 48.8292 66.1047 48.879 65.6701 49.0208C65.2354 49.1626 64.8351 49.3934 64.4946 49.6985C64.154 50.0036 63.8808 50.3763 63.6922 50.7928C63.5037 51.2094 63.404 51.6606 63.3995 52.1178C63.3995 54.3862 64.8054 55.3062 68.0512 56.7178L69.943 57.5285C76.3715 60.2857 80.0055 63.0945 80.0055 69.4109C80.0055 76.2218 74.6551 79.9535 67.4705 79.9535C64.6711 80.1319 61.8799 79.4963 59.4338 78.1235C56.9876 76.7507 54.991 74.6993 53.6849 72.2169L59.8259 68.6404ZM33.1027 69.2959C34.2901 71.4033 35.3711 73.1858 37.9701 73.1858C40.4541 73.1858 42.0239 72.214 42.0239 68.4334V42.7108H49.588V68.534C49.588 76.3655 44.988 79.9305 38.2921 79.9305C35.9253 80.0599 33.5747 79.4701 31.5493 78.2385C29.524 77.007 27.9187 75.1915 26.9445 73.0305L33.1027 69.2959Z" fill="black"/>
</svg>
