<svg width="25" height="25" viewBox="0 0 25 25" fill="none" xmlns="http://www.w3.org/2000/svg">
<path d="M21.4167 0.950073C22.1151 0.950073 22.7849 1.22751 23.2787 1.72136C23.7726 2.2152 24.05 2.885 24.05 3.58341V22.0167C24.05 22.7152 23.7726 23.3849 23.2787 23.8788C22.7849 24.3726 22.1151 24.6501 21.4167 24.6501H2.98334C2.28494 24.6501 1.61514 24.3726 1.12129 23.8788C0.627446 23.3849 0.350006 22.7152 0.350006 22.0167V3.58341C0.350006 2.885 0.627446 2.2152 1.12129 1.72136C1.61514 1.22751 2.28494 0.950073 2.98334 0.950073H21.4167ZM20.7583 21.3584V14.3801C20.7583 13.2417 20.3061 12.1499 19.5011 11.3449C18.6962 10.54 17.6044 10.0877 16.466 10.0877C15.3468 10.0877 14.0433 10.7724 13.4113 11.7994V10.3379H9.73784V21.3584H13.4113V14.8672C13.4113 13.8534 14.2277 13.0239 15.2415 13.0239C15.7304 13.0239 16.1993 13.2181 16.5449 13.5638C16.8906 13.9095 17.0848 14.3784 17.0848 14.8672V21.3584H20.7583ZM5.45867 8.27074C6.04533 8.27074 6.60796 8.03769 7.0228 7.62286C7.43763 7.20803 7.67068 6.6454 7.67068 6.05874C7.67068 4.83424 6.68317 3.83357 5.45867 3.83357C4.86852 3.83357 4.30254 4.06801 3.88524 4.48531C3.46794 4.90261 3.23351 5.46859 3.23351 6.05874C3.23351 7.28324 4.23417 8.27074 5.45867 8.27074ZM7.28884 21.3584V10.3379H3.64167V21.3584H7.28884Z" fill="black"/>
</svg>
