<svg width="94" height="94" viewBox="0 0 94 94" fill="none" xmlns="http://www.w3.org/2000/svg">
<path d="M48.8212 88.125L46.6152 87.3936C46.6152 87.3936 46.9089 76.2311 42.8699 75.4468C40.2261 72.3683 43.2606 -55.9799 52.9249 75.0091C51.0913 75.9392 49.6883 77.5422 49.0092 79.4829C48.6453 82.3492 48.5823 85.2457 48.8212 88.125V88.125Z" fill="url(#paint0_linear_81_180)"/>
<path d="M50.0139 77.3415C55.8876 72.9199 60.3859 66.922 62.9859 60.0451C65.5858 53.1682 66.1807 45.6947 64.7014 38.493C60.3832 19.4434 50.1578 13.1806 49.0563 10.7895C48.1058 9.30055 47.2946 7.72723 46.6328 6.08948L47.4465 59.1672C47.4465 59.1672 45.7604 75.388 50.0139 77.3415Z" fill="url(#paint1_linear_81_180)"/>
<path d="M45.4931 78.0464C45.4931 78.0464 27.5126 65.8 28.5525 44.1359C28.6495 37.6048 30.147 31.1706 32.9438 25.2678C35.7406 19.3651 39.7716 14.1313 44.7646 9.91994C45.348 9.42422 45.8116 8.80273 46.1204 8.10216C46.4292 7.40158 46.5753 6.64013 46.5476 5.875C47.6668 8.28375 47.4847 41.8388 47.6022 45.7633C48.0575 61.0295 46.7532 75.1648 45.4931 78.0464V78.0464Z" fill="url(#paint2_linear_81_180)"/>
<defs>
<linearGradient id="paint0_linear_81_180" x1="33.9917" y1="47.7412" x2="59.3472" y2="56.3455" gradientUnits="userSpaceOnUse">
<stop offset="0.231" stop-color="#999875"/>
<stop offset="0.563" stop-color="#9B9977"/>
<stop offset="0.683" stop-color="#A09F7E"/>
<stop offset="0.768" stop-color="#A9A889"/>
<stop offset="0.837" stop-color="#B7B69A"/>
<stop offset="0.896" stop-color="#C9C7B0"/>
<stop offset="0.948" stop-color="#DEDDCB"/>
<stop offset="0.994" stop-color="#F8F6EB"/>
<stop offset="1" stop-color="#FBF9EF"/>
</linearGradient>
<linearGradient id="paint1_linear_81_180" x1="43.2898" y1="5.71021" x2="54.4994" y2="75.7077" gradientUnits="userSpaceOnUse">
<stop stop-color="#48A547"/>
<stop offset="1" stop-color="#3F9143"/>
</linearGradient>
<linearGradient id="paint2_linear_81_180" x1="27.0058" y1="46.2804" x2="57.0876" y2="36.206" gradientUnits="userSpaceOnUse">
<stop stop-color="#41A247"/>
<stop offset="0.352" stop-color="#4BA74B"/>
<stop offset="0.956" stop-color="#67B554"/>
<stop offset="1" stop-color="#69B655"/>
</linearGradient>
</defs>
</svg>
