<svg width="83" height="82" viewBox="0 0 83 82" fill="none" xmlns="http://www.w3.org/2000/svg">
<path d="M76.4016 63.196C71.8891 63.083 68.3918 63.536 65.4586 64.7813C64.6124 65.1207 63.2584 65.121 63.1456 66.1968C63.5969 66.6497 63.6533 67.3858 64.0482 68.0082C64.7258 69.1403 65.9096 70.669 66.9814 71.462C68.1658 72.3676 69.3508 73.2732 70.5913 74.0658C72.7914 75.4247 75.2737 76.217 77.4171 77.5759C78.6585 78.3679 79.8986 79.3877 81.1397 80.2367C81.7603 80.689 82.1549 81.4257 82.945 81.7084V81.5389C82.5498 81.029 82.4369 80.2933 82.0424 79.7271C81.4789 79.1609 80.9141 78.6513 80.3499 78.0851C78.7143 75.8776 76.6837 73.9526 74.4839 72.3676C72.6789 71.122 68.7299 69.4237 67.9969 67.3288C67.9969 67.3288 67.9401 67.2725 67.8841 67.2159C69.1248 67.1027 70.5913 66.6497 71.7763 66.31C73.6941 65.8001 75.4426 65.9137 77.4171 65.4041C78.3194 65.1776 79.222 64.8945 80.1243 64.6114V64.1022C79.1095 63.083 78.3761 61.7245 77.3042 60.762C74.4274 58.2704 71.2683 55.8365 67.9969 53.7985C66.2481 52.6661 63.9915 51.9301 62.1301 50.9679C61.4538 50.6278 60.3252 50.4583 59.9306 49.8921C58.9149 48.6468 58.3507 47.0052 57.6177 45.5331C55.9823 42.419 54.4024 38.9659 52.992 35.6827C51.9772 33.4745 51.3567 31.2664 50.1156 29.2287C44.3056 19.6045 37.9878 13.7734 28.2859 8.05517C26.1986 6.8665 23.7167 6.35693 21.0656 5.73444C19.6559 5.6775 18.2452 5.56459 16.8352 5.50764C15.9325 5.11131 15.0299 4.03587 14.2401 3.5263C11.0255 1.48801 2.73294 -2.9273 0.363869 2.90382C-1.15931 6.5834 2.62043 10.2064 3.91731 12.0751C4.87699 13.377 6.11746 14.8488 6.79442 16.3209C7.18932 17.2828 7.30183 18.3026 7.69673 19.3214C8.59968 21.8117 9.44524 24.5863 10.6303 26.9077C11.2508 28.0964 11.9275 29.3417 12.7173 30.4174C13.1686 31.0399 13.958 31.3233 14.1276 32.3421C13.3381 33.4745 13.2814 35.1731 12.8298 36.5882C10.7992 42.9856 11.5893 50.9112 14.4658 55.61C15.3681 57.0248 17.5118 60.1395 20.3886 58.9502C22.9272 57.9314 22.3631 54.7044 23.0958 51.8738C23.2657 51.1937 23.1529 50.7414 23.491 50.2884V50.402C24.2808 51.9867 25.0703 53.5157 25.8037 55.1007C27.5525 57.8744 30.5982 60.762 33.1366 62.687C34.4908 63.7055 35.5624 65.4607 37.2548 66.0835V65.9133H37.1416C36.8031 65.4038 36.2954 65.1776 35.8444 64.781C34.8293 63.7625 33.7007 62.5168 32.9112 61.3845C30.5425 58.2138 28.4548 54.7041 26.5935 51.0808C25.6912 49.3262 24.9011 47.4012 24.168 45.6463C23.8292 44.9662 23.8292 43.9478 23.2654 43.6084C22.4192 44.8537 21.1784 45.9294 20.5578 47.4578C19.4866 49.8921 19.3735 52.8926 18.9786 56.006C18.7529 56.0633 18.8654 56.006 18.7526 56.1199C16.948 55.6663 16.3274 53.7985 15.6501 52.2132C13.9577 48.1939 13.6756 41.7399 15.1427 37.0978C15.5376 35.9088 17.2301 32.1726 16.5531 31.0402C16.2146 29.9645 15.086 29.3417 14.4658 28.4927C13.7327 27.4169 12.9426 26.0587 12.4352 24.8694C11.0812 21.6991 10.4043 18.189 8.93784 15.0187C8.26087 13.5466 7.07682 12.0185 6.11746 10.6596C5.04591 9.13126 3.86122 8.05517 3.01501 6.24369C2.73326 5.6212 2.33804 4.60206 2.78935 3.92263C2.90218 3.46968 3.12751 3.30015 3.57915 3.18691C4.31253 2.56378 6.39985 3.35644 7.13259 3.69616C9.21991 4.54479 10.9684 5.33811 12.7173 6.52678C13.5067 7.09297 14.3529 8.16874 15.3681 8.45183H16.5528C18.358 8.84784 20.3883 8.56507 22.0807 9.07432C25.0706 10.0365 27.7779 11.452 30.2037 12.9807C37.5933 17.6794 43.6847 24.3598 47.8029 32.3421C48.4799 33.6437 48.7616 34.8334 49.3822 36.1916C50.5672 38.9659 52.0336 41.7966 53.2177 44.5139C54.4024 47.1744 55.5303 49.8921 57.2228 52.1002C58.069 53.2886 61.4532 53.9117 62.9764 54.5345C64.1046 55.0438 65.8535 55.4971 66.8686 56.1195C68.7864 57.3079 70.7041 58.6674 72.5094 59.969C73.412 60.6484 76.232 62.0639 76.4016 63.196V63.196Z" fill="#00546B"/>
<path d="M18.865 13.9993C17.9063 13.9993 17.2296 14.1132 16.5527 14.2827V14.3959H16.6655C17.1171 15.3018 17.9063 15.9246 18.4701 16.717C18.9217 17.6226 19.3163 18.5288 19.7679 19.4347C19.824 19.3778 19.8804 19.3215 19.8804 19.3215C20.6706 18.7549 21.0651 17.8494 21.0651 16.4905C20.7266 16.0945 20.6702 15.6982 20.3882 15.3018C20.05 14.7353 19.3163 14.4525 18.865 13.9993V13.9993Z" fill="#00546B"/>
</svg>
