<svg width="104" height="104" viewBox="0 0 104 104" fill="none" xmlns="http://www.w3.org/2000/svg">
<path d="M52 97.5C50.7724 97.5004 49.5663 97.1776 48.503 96.564L37.375 89.9762C35.7142 89.0467 36.5235 88.7185 37.0727 88.5267C38.839 87.981 40.5302 87.2168 42.107 86.2517C42.239 86.1906 42.3844 86.1643 42.5294 86.1751C42.6744 86.1859 42.8143 86.2335 42.9357 86.3135L51.4865 91.3932C51.6457 91.4774 51.8231 91.5215 52.0032 91.5215C52.1834 91.5215 52.3608 91.4774 52.52 91.3932L85.865 72.1467C86.021 72.0532 86.1501 71.9208 86.2396 71.7624C86.329 71.604 86.3758 71.4251 86.3752 71.2432V32.7437C86.3754 32.5589 86.3279 32.3772 86.2374 32.2161C86.1468 32.055 86.0164 31.92 85.8585 31.824L52.5135 12.5937C52.3562 12.5052 52.1788 12.4586 51.9984 12.4586C51.8179 12.4586 51.6405 12.5052 51.4832 12.5937L18.1577 31.8305C17.9988 31.9245 17.8668 32.0579 17.7745 32.2179C17.6823 32.3779 17.6329 32.559 17.6312 32.7437V71.227C17.6317 71.4084 17.6804 71.5865 17.7723 71.743C17.8643 71.8995 17.9962 72.0287 18.1545 72.1175L27.3 77.3955C32.2562 79.872 35.2917 76.9535 35.2917 74.022V36.0262C35.2917 35.7676 35.3945 35.5196 35.5773 35.3368C35.7602 35.1539 36.0082 35.0512 36.2667 35.0512H40.4917C40.7503 35.0512 40.9983 35.1539 41.1812 35.3368C41.364 35.5196 41.4667 35.7676 41.4667 36.0262V74.0252C41.4667 80.639 37.8657 84.4252 31.5932 84.4252C28.8872 84.4723 26.2236 83.7487 23.9135 82.3387L15.1482 77.311C14.0841 76.6913 13.2012 75.8033 12.5876 74.7358C11.974 73.6682 11.6511 72.4583 11.6512 71.227V32.7437C11.6481 31.5104 11.9696 30.298 12.5834 29.2284C13.1973 28.1587 14.0818 27.2694 15.1482 26.65L48.4965 7.39696C49.5707 6.80925 50.7755 6.50122 52 6.50122C53.2245 6.50122 54.4293 6.80925 55.5035 7.39696L88.8485 26.65C89.9125 27.2684 90.7956 28.1551 91.4098 29.2215C92.024 30.2879 92.3477 31.4968 92.3487 32.7275V71.227C92.3469 72.4583 92.0229 73.6678 91.4088 74.7351C90.7948 75.8024 89.9121 76.6905 88.8485 77.311L55.5035 96.564C54.4383 97.1786 53.2298 97.5014 52 97.5V97.5Z" fill="#83CD29"/>
<path d="M45.6755 58.3473C45.6755 58.0887 45.7782 57.8407 45.9611 57.6578C46.1439 57.475 46.3919 57.3723 46.6505 57.3723H50.9633C51.1937 57.373 51.4164 57.4554 51.5919 57.6047C51.7674 57.754 51.8844 57.9607 51.922 58.188C52.572 62.5788 54.522 64.792 63.3393 64.792C70.3625 64.792 73.3558 63.2028 73.3558 59.475C73.3558 57.3268 72.5075 55.731 61.5908 54.6618C52.4648 53.7583 46.8228 51.7368 46.8228 44.4438C46.8228 37.7163 52.494 33.7025 62.0003 33.7025C72.683 33.7025 77.9708 37.4108 78.6403 45.3668C78.6505 45.4996 78.6334 45.6331 78.59 45.7591C78.5466 45.885 78.4779 46.0008 78.3881 46.0991C78.2982 46.1975 78.1892 46.2764 78.0677 46.331C77.9461 46.3856 77.8147 46.4147 77.6815 46.4165H73.3395C73.1217 46.4135 72.9112 46.3376 72.7415 46.2009C72.5719 46.0642 72.4529 45.8747 72.4035 45.6625C71.3668 41.0443 68.8285 39.5688 62.0035 39.5688C54.3335 39.5688 53.443 42.2403 53.443 44.2423C53.443 46.6668 54.496 47.3753 64.8505 48.7435C75.0978 50.0988 79.9663 52.0163 79.9663 59.2183C79.9663 66.4853 73.9083 70.6453 63.3425 70.6453C48.7338 70.6648 45.6755 63.9665 45.6755 58.3473V58.3473Z" fill="#83CD29"/>
</svg>
