<svg width="92" height="91" viewBox="0 0 92 91" fill="none" xmlns="http://www.w3.org/2000/svg">
<path d="M45.6105 0.0256348C22.3115 0.0256348 23.7662 10.0588 23.7662 10.0588L23.7921 20.4535H46.0259V23.5743H14.9612C14.9612 23.5743 0.052124 21.8953 0.052124 45.2394C0.052124 68.5843 13.0651 67.7564 13.0651 67.7564H20.8312V56.9235C20.8312 56.9235 20.4125 44.0015 33.6364 44.0015H55.6884C55.6884 44.0015 68.0779 44.2002 68.0779 32.1112V12.1226C68.0779 12.1226 69.9596 0.0256348 45.6105 0.0256348ZM33.3507 7.01586C33.8761 7.01539 34.3965 7.11781 34.882 7.31725C35.3675 7.51669 35.8086 7.80924 36.1801 8.17815C36.5516 8.54707 36.8462 8.98511 37.0471 9.46721C37.2479 9.94932 37.3511 10.466 37.3506 10.9877C37.3511 11.5095 37.2479 12.0262 37.0471 12.5083C36.8462 12.9904 36.5516 13.4284 36.1801 13.7973C35.8086 14.1663 35.3675 14.4588 34.882 14.6582C34.3965 14.8577 33.8761 14.9601 33.3507 14.9596C32.8253 14.9601 32.305 14.8577 31.8195 14.6582C31.334 14.4588 30.8929 14.1663 30.5214 13.7973C30.1499 13.4284 29.8552 12.9904 29.6544 12.5083C29.4536 12.0262 29.3504 11.5095 29.3509 10.9877C29.3504 10.466 29.4536 9.94932 29.6544 9.46721C29.8552 8.98511 30.1499 8.54707 30.5214 8.17815C30.8929 7.80924 31.334 7.51669 31.8195 7.31725C32.305 7.11781 32.8253 7.01539 33.3507 7.01586V7.01586Z" fill="url(#paint0_linear_81_199)"/>
<path d="M46.272 90.6881C69.571 90.6881 68.1163 80.6549 68.1163 80.6549L68.0904 70.2606H45.8562V67.1398H76.921C76.921 67.1398 91.83 68.8189 91.83 45.474C91.83 22.1294 78.817 22.9574 78.817 22.9574H71.051V33.7899C71.051 33.7899 71.4696 46.7119 58.2457 46.7119H36.1937C36.1937 46.7119 23.8043 46.5132 23.8043 58.6026V78.5916C23.8043 78.5916 21.9229 90.6881 46.2717 90.6881H46.272ZM58.5318 83.6986C58.0064 83.6991 57.486 83.5967 57.0005 83.3972C56.515 83.1978 56.0739 82.9052 55.7024 82.5363C55.3309 82.1674 55.0363 81.7294 54.8354 81.2473C54.6346 80.7652 54.5314 80.2485 54.5319 79.7267C54.5314 79.205 54.6345 78.6882 54.8353 78.2061C55.0361 77.7239 55.3307 77.2859 55.7023 76.9169C56.0738 76.548 56.5149 76.2554 57.0004 76.0559C57.486 75.8564 58.0063 75.754 58.5318 75.7545C59.0572 75.754 59.5775 75.8564 60.063 76.0559C60.5485 76.2553 60.9896 76.5479 61.3611 76.9168C61.7326 77.2857 62.0273 77.7237 62.2281 78.2058C62.4289 78.6879 62.5321 79.2046 62.5316 79.7264C62.5321 80.2481 62.4289 80.7648 62.2281 81.2469C62.0273 81.729 61.7326 82.167 61.3611 82.536C60.9896 82.9049 60.5485 83.1974 60.063 83.3969C59.5775 83.5963 59.0572 83.6987 58.5318 83.6983V83.6986Z" fill="url(#paint1_linear_81_199)"/>
<defs>
<linearGradient id="paint0_linear_81_199" x1="8.87195" y1="8.18018" x2="54.0384" y2="53.2108" gradientUnits="userSpaceOnUse">
<stop stop-color="#387EB8"/>
<stop offset="1" stop-color="#366994"/>
</linearGradient>
<linearGradient id="paint1_linear_81_199" x1="36.789" y1="36.8928" x2="85.3083" y2="83.0825" gradientUnits="userSpaceOnUse">
<stop stop-color="#FFE052"/>
<stop offset="1" stop-color="#FFC331"/>
</linearGradient>
</defs>
</svg>
