<svg width="99" height="88" viewBox="0 0 99 88" fill="none" xmlns="http://www.w3.org/2000/svg">
<path d="M81.3977 28.4935C80.3441 28.1328 79.2816 27.7985 78.2112 27.4912C78.391 26.7578 78.5565 26.0334 78.7035 25.3217C81.1158 13.6343 79.5388 4.21865 74.1522 1.11858C68.9875 -1.85335 60.5412 1.24556 52.011 8.65493C51.1703 9.38647 50.3482 10.1391 49.5456 10.9121C49.0083 10.3981 48.4616 9.89402 47.9056 9.40023C38.9654 1.47791 30.0043 -1.86107 24.6235 1.24788C19.4636 4.22907 17.9356 13.0804 20.1074 24.1568C20.3235 25.2538 20.5675 26.3452 20.8391 27.4298C19.5707 27.7895 18.3467 28.1724 17.1753 28.58C6.69371 32.2274 0 37.9431 0 43.8719C0 49.9953 7.18601 56.1371 18.1031 59.8613C18.9881 60.162 19.8806 60.4406 20.7796 60.6969C20.4876 61.8651 20.2284 63.0412 20.0023 64.2238C17.9318 75.1081 19.5486 83.7502 24.6947 86.7125C30.0098 89.7716 38.9306 86.6276 47.6167 79.0491C48.321 78.433 49.0099 77.7995 49.6825 77.149C50.5517 77.986 51.4441 78.7987 52.3586 79.586C60.7729 86.8121 69.0827 89.73 74.2237 86.7596C79.5337 83.6915 81.2597 74.4075 79.019 63.1123C78.8425 62.2274 78.6446 61.3469 78.4254 60.4715C79.0519 60.2862 79.6668 60.0956 80.2662 59.8972C91.6156 56.1444 99 50.0771 99 43.8719C99 37.9215 92.0901 32.1671 81.3977 28.4935ZM78.9363 55.8909C78.3949 56.0696 77.8395 56.2421 77.2734 56.41C76.0204 52.4511 74.3297 48.2418 72.2603 43.8924C74.2349 39.6468 75.8607 35.4911 77.0785 31.5581C78.0913 31.8507 79.0739 32.159 80.0214 32.4844C89.1828 35.6323 94.7708 40.2859 94.7708 43.8719C94.7708 47.6914 88.7357 52.6499 78.9363 55.8909ZM74.8703 63.9321C75.8611 68.9264 76.0022 73.4422 75.346 76.9727C74.7566 80.1449 73.5709 82.2596 72.1045 83.1068C68.9848 84.9093 62.3128 82.5664 55.1171 76.3864C54.2664 75.6543 53.4364 74.8988 52.6278 74.1208C55.4176 71.0759 58.2054 67.5362 60.9264 63.6048C65.7124 63.181 70.2339 62.4878 74.3343 61.5418C74.5318 62.3342 74.7105 63.1312 74.8703 63.9321ZM33.7513 82.7953C30.7031 83.8695 28.2753 83.9003 26.8077 83.0559C23.685 81.2584 22.3868 74.3192 24.1575 65.0112C24.368 63.9113 24.6091 62.8175 24.8803 61.7309C28.9355 62.6263 33.4241 63.2701 38.2213 63.6584C40.9609 67.5053 43.8292 71.0411 46.7199 74.1374C46.1056 74.7306 45.4767 75.3087 44.8339 75.8711C40.9926 79.2221 37.1436 81.5996 33.7513 82.7953ZM19.4713 55.8673C14.6439 54.2204 10.6572 52.0802 7.92464 49.7448C5.46898 47.6463 4.22954 45.5624 4.22954 43.8719C4.22954 40.274 9.60377 35.6848 18.5675 32.5658C19.6554 32.1876 20.7939 31.8306 21.9753 31.4956C23.2143 35.5173 24.8393 39.7224 26.8004 43.9746C24.8138 48.2897 23.1656 52.5619 21.9146 56.6311C21.094 56.3966 20.2793 56.1419 19.4713 55.8673ZM24.2581 23.3459C22.3976 13.8562 23.6332 6.6977 26.7428 4.90104C30.0546 2.98742 37.3783 5.71581 45.0976 12.5567C45.601 13.0037 46.0962 13.4599 46.583 13.9249C43.7066 17.0076 40.8646 20.5172 38.1494 24.3413C33.4933 24.7721 29.0364 25.4637 24.9387 26.3904C24.6863 25.3816 24.4593 24.3665 24.2581 23.3463V23.3459ZM66.9623 33.8704C65.9944 32.2019 64.9907 30.5543 63.9517 28.9289C67.1104 29.3276 70.1369 29.8568 72.9789 30.5036C72.1258 33.2332 71.0623 36.0866 69.8105 39.0122C68.8955 37.2795 67.9459 35.5653 66.9623 33.8704ZM49.5476 16.9416C51.4982 19.0509 53.4519 21.4057 55.3735 23.9608C51.4754 23.777 47.5707 23.7762 43.6725 23.9584C45.5961 21.4269 47.5664 19.0752 49.5476 16.9416ZM32.0211 33.8994C31.0498 35.5806 30.1179 37.2842 29.2263 39.0088C27.995 36.0936 26.9411 33.227 26.0807 30.4589C28.9053 29.8282 31.9174 29.3125 35.0561 28.9212C34.0055 30.5565 32.9936 32.2162 32.0211 33.899V33.8994ZM35.1462 59.1229C31.9035 58.7617 28.8461 58.2727 26.0223 57.659C26.8963 54.8414 27.9733 51.9139 29.2313 48.9362C30.1265 50.662 31.0622 52.3667 32.0377 54.0487C33.0409 55.7778 34.0796 57.4714 35.1462 59.1229ZM49.6644 71.0994C47.6596 68.9411 45.6603 66.5532 43.7077 63.9849C45.6034 64.059 47.5359 64.0969 49.5 64.0969C51.5179 64.0969 53.5126 64.0517 55.476 63.9645C53.5482 66.579 51.6018 68.9705 49.6644 71.0994ZM69.8503 48.7841C71.1737 51.7946 72.2889 54.7067 73.1745 57.476C70.3043 58.1298 67.2051 58.6563 63.9397 59.0473C64.9861 57.3917 65.9993 55.7155 66.9789 54.0197C67.9748 52.296 68.9322 50.5503 69.8503 48.7841ZM63.3155 51.9108C61.8159 54.5108 60.232 57.0614 58.5662 59.5587C55.5489 59.772 52.5249 59.8779 49.5 59.8763C46.419 59.8763 43.4223 59.7806 40.5366 59.5938C38.8274 57.1023 37.2133 54.5472 35.6976 51.934H35.698C34.1895 49.3345 32.7804 46.6788 31.4739 43.9727C32.7771 41.2658 34.1819 38.6089 35.6852 36.0075L35.6849 36.0079C37.1876 33.4058 38.7889 30.8616 40.4852 28.3808C43.4293 28.1585 46.4484 28.0427 49.4996 28.0427H49.5C52.5651 28.0427 55.5881 28.1597 58.5314 28.3835C60.2106 30.8606 61.8016 33.396 63.3016 35.9851C64.81 38.5808 66.2333 41.2248 67.5694 43.9128C66.247 46.6284 64.8282 49.2961 63.3155 51.9108ZM72.0399 4.77521C75.3549 6.68342 76.6442 14.3784 74.5613 24.4695C74.4283 25.1132 74.279 25.769 74.1166 26.434C70.0089 25.4876 65.5488 24.784 60.8792 24.3467C58.159 20.4805 55.3402 16.9655 52.5106 13.9226C53.2522 13.2091 54.0114 12.5142 54.7876 11.8384C62.0966 5.49041 68.9276 2.98395 72.0399 4.77521ZM49.5 35.0488C54.3823 35.0488 58.3404 38.9991 58.3404 43.8719C58.3404 48.7447 54.3823 52.6951 49.5 52.6951C44.6177 52.6951 40.6596 48.7447 40.6596 43.8719C40.6596 38.9991 44.6177 35.0488 49.5 35.0488Z" fill="#00D8FF"/>
</svg>
