<svg width="119" height="119" viewBox="0 0 119 119" fill="none" xmlns="http://www.w3.org/2000/svg">
<path d="M49.8312 40.1625L50.0792 45.8645L46.1125 53.302L39.9146 65.4499L38.675 75.6145L43.1375 89.9937L53.3021 95.6958H68.6729L83.0521 84.7875L89.4979 67.6812L74.6229 49.5833L70.4083 39.4187L49.8312 40.1625Z" fill="#ECEFF1"/>
<path d="M85.0354 54.2937C81.0687 48.5916 77.8458 45.1208 76.1104 37.9312C74.375 30.7416 76.6062 32.7249 75.1187 26.527C74.375 23.3041 73.1354 21.0729 71.8958 19.3374C70.4083 17.602 68.6729 16.6104 67.6812 16.3624C65.45 15.1229 60.2437 13.1395 53.7979 16.6104C47.1042 20.0812 47.8479 27.5187 49.0875 42.6416C49.0875 43.6333 48.8396 44.8729 48.3437 45.8645C47.3521 48.0958 45.6167 50.0791 44.1292 51.8145C42.3937 54.2937 40.6583 56.7729 39.4187 59.4999C36.4437 65.202 33.7167 72.3916 34.4604 75.1187C35.7 74.8708 51.3187 98.6708 51.3187 99.1666C52.3104 98.9187 56.525 98.9187 60.2437 98.9187C65.45 98.6708 68.425 98.4229 72.6396 99.4145C72.6396 98.6708 72.3917 97.927 72.3917 97.1833C72.3917 95.6958 72.6396 94.4562 72.8875 92.7208C73.1354 91.4812 73.3833 90.2416 73.6312 88.7541C71.1521 90.9854 66.6896 93.4645 62.475 94.2083C58.7562 94.952 52.5583 93.7124 49.5833 89.9937C49.8312 89.9937 50.3271 89.9937 50.575 89.7458C51.3187 89.4979 52.0625 89.2499 52.3104 88.7541C53.0542 87.5145 52.5583 86.2749 52.0625 85.5312C51.5667 84.7874 47.8479 82.0604 46.1125 80.5729C44.3771 79.0854 43.3854 78.3416 42.3937 77.3499L40.4104 75.3666C39.9146 74.8708 39.6667 74.3749 39.4187 74.127C38.9229 72.8874 38.675 71.3999 38.9229 69.4166C39.1708 66.6895 40.1625 64.4583 41.4021 61.9791C41.8979 60.9874 43.1375 59.0041 43.1375 59.0041C43.1375 59.0041 38.9229 69.4166 41.1542 72.6395C41.1542 72.6395 41.4021 69.4166 42.3937 66.1937C43.1375 63.9624 44.3771 60.7395 45.8646 59.0041C47.3521 57.2687 51.0708 50.8229 51.3187 46.8562C51.3187 45.1208 51.5667 43.3854 51.5667 42.1458C50.575 41.1541 67.9292 38.6749 68.9208 41.402C69.1687 42.3937 72.6396 51.3187 74.6229 56.0291C75.6146 58.2604 76.8542 60.2437 77.5979 62.7229C78.3417 65.4499 78.8375 69.1687 78.8375 72.8874C78.8375 73.6312 78.8375 74.8708 78.5896 76.1104C79.0854 76.1104 88.7542 65.6979 77.35 57.0208C77.35 57.0208 84.2917 60.2437 84.5396 66.6895C84.7875 71.8958 82.5562 76.1104 82.0604 76.8541C82.3083 76.8541 87.2667 79.0854 87.5146 79.0854C88.5062 79.0854 90.4896 78.3416 90.4896 78.3416C90.7375 77.5979 91.4812 75.6145 91.4812 74.8708C93.2167 69.1687 89.0021 59.9958 85.0354 54.2937V54.2937Z" fill="black"/>
<path d="M53.55 37.9313C55.33 37.9313 56.7729 35.7114 56.7729 32.973C56.7729 30.2346 55.33 28.0146 53.55 28.0146C51.77 28.0146 50.3271 30.2346 50.3271 32.973C50.3271 35.7114 51.77 37.9313 53.55 37.9313Z" fill="#ECEFF1"/>
<path d="M64.7063 38.4271C67.0339 38.4271 68.9208 35.8742 68.9208 32.725C68.9208 29.5759 67.0339 27.0229 64.7063 27.0229C62.3786 27.0229 60.4917 29.5759 60.4917 32.725C60.4917 35.8742 62.3786 38.4271 64.7063 38.4271Z" fill="#ECEFF1"/>
<path d="M55.3522 33.3117C55.1461 31.6816 54.2083 30.4576 53.2574 30.5778C52.3065 30.698 51.7027 32.1169 51.9087 33.747C52.1148 35.377 53.0526 36.6011 54.0035 36.4809C54.9544 36.3607 55.5582 34.9418 55.3522 33.3117Z" fill="#212121"/>
<path d="M64.4583 36.9396C65.8275 36.9396 66.9375 35.4967 66.9375 33.7167C66.9375 31.9367 65.8275 30.4938 64.4583 30.4938C63.0891 30.4938 61.9792 31.9367 61.9792 33.7167C61.9792 35.4967 63.0891 36.9396 64.4583 36.9396Z" fill="#212121"/>
<path d="M97.4313 88.2584C96.4396 87.7625 94.7042 87.0188 93.2167 84.7875C92.4729 83.548 92.7209 80.0771 91.4813 78.5896C90.7375 77.598 89.7458 78.0938 89.4979 78.0938C87.2667 78.5896 82.0604 82.0605 78.5896 78.0938C78.0938 77.598 77.35 76.8542 76.1104 76.8542C74.8709 76.8542 74.375 77.35 73.8792 78.3417C73.3833 79.3334 73.3834 80.0771 73.3834 82.5563C73.3834 84.5396 73.3834 86.7709 73.1354 88.5063C72.6396 92.7209 71.8959 95.2 71.8959 97.6792C71.8959 100.406 72.6396 102.142 73.6313 102.885C74.375 103.629 75.6146 104.125 78.3417 104.125C81.0688 104.125 82.8042 103.133 84.5396 101.398C85.7792 100.158 86.7709 99.6625 90.2417 97.1834C92.9688 95.448 97.1834 93.2167 97.9271 92.473C98.4229 91.9771 99.1667 91.7292 99.1667 90.2417C99.1667 89.0021 98.175 88.5063 97.4313 88.2584V88.2584ZM47.6 89.0021C45.1209 85.0355 44.8729 84.2917 43.1375 81.8125C41.65 79.3334 38.4271 74.623 36.4438 74.623C34.9563 74.623 34.2125 75.3667 33.2208 76.3584C32.2292 77.35 31.2375 79.5813 29.5021 80.8209C28.0146 82.0605 23.8 81.8125 22.8083 83.3C21.8167 84.7875 23.8 87.0188 23.8 90.7375C23.8 92.225 22.5604 93.2167 22.3125 94.2084C22.0646 95.448 21.8167 96.1917 22.3125 97.1834C23.3042 98.6709 24.5438 99.1667 32.9729 100.902C37.4354 101.894 41.65 104.373 44.3771 104.621C47.1042 104.869 51.8146 104.621 51.8146 97.9271C52.0625 93.9605 49.8313 92.9688 47.6 89.0021V89.0021ZM52.3104 44.1292C50.8229 43.1375 49.5833 42.1459 49.5833 40.6584C49.5833 39.1709 50.575 38.675 52.0625 37.4355C52.3104 37.1875 55.0375 34.7084 57.7646 34.7084C60.4917 34.7084 63.7146 36.4438 64.9542 36.9396C67.1854 37.4355 69.4167 37.9313 69.1688 39.6667C68.9209 42.1459 68.6729 42.6417 66.1938 43.8813C64.4584 44.3771 61.2354 47.1042 59.0042 47.1042C58.0125 47.1042 56.525 47.1042 55.5333 46.8563C54.7896 46.6084 53.55 45.3688 52.3104 44.1292Z" fill="#FFC107"/>
<path d="M51.8146 42.1458C52.3104 42.6416 53.0542 43.1375 53.7979 43.3854C54.2937 43.6333 55.0375 43.8812 55.0375 43.8812H57.2687C58.5083 43.8812 60.2437 43.3854 61.9792 42.3937C63.7146 41.65 63.9625 41.1541 65.2021 40.6583C66.4417 39.9146 67.6812 39.1708 67.1854 38.9229C66.6896 38.675 66.1937 38.9229 64.4583 39.9146C62.9708 40.9062 61.7312 41.4021 60.2437 42.1458C59.5 42.3937 58.5083 42.8896 57.7646 42.8896H55.5333C54.7896 42.8896 54.2937 42.6416 53.55 42.3937C53.0542 42.1458 52.8062 41.8979 52.5583 41.8979C52.0625 41.65 51.0708 40.6583 50.575 40.4104C50.575 40.4104 50.0792 40.4104 50.3271 40.6583L51.8146 42.1458ZM59.2521 36.6916C59.5 37.1875 59.9958 37.1875 60.2437 37.4354C60.4917 37.6833 60.7396 37.6833 60.7396 37.6833C60.9875 37.4354 60.7396 36.9396 60.4917 36.9396C60.4917 36.4437 59.2521 36.4437 59.2521 36.6916V36.6916ZM55.2854 37.1875C55.2854 37.4354 55.7812 37.6833 55.7812 37.4354C56.0292 37.1875 56.2771 36.9396 56.525 36.9396C57.0208 36.6916 56.7729 36.4437 56.0292 36.4437C55.5333 36.6916 55.5333 36.9396 55.2854 37.1875V37.1875Z" fill="#634703"/>
<path d="M79.3333 81.0687V81.8125C79.8292 82.8042 81.0688 83.0521 82.0604 83.0521C83.5479 83.0521 85.0354 82.0604 85.7792 81.0687C85.7792 80.8208 86.0271 80.5729 86.275 80.325C86.7708 79.5813 87.0188 79.0854 87.2667 78.8375C87.2667 78.8375 87.0188 78.5896 87.0188 78.3417C86.7708 77.8458 86.0271 77.35 85.0354 77.1021C84.2917 76.8542 83.0521 76.6062 82.5563 76.6062C80.325 76.3583 79.0854 77.1021 78.3417 77.8458C78.3417 77.8458 78.5896 77.8458 78.5896 78.0937C79.0854 78.5896 79.3333 79.0854 79.3333 79.8292C79.5813 80.325 79.3333 80.5729 79.3333 81.0687V81.0687Z" fill="#455A64"/>
</svg>
