<svg width="80" height="80" viewBox="0 0 80 80" fill="none" xmlns="http://www.w3.org/2000/svg">
<path d="M0 40V80H80V0H0V40Z" fill="#007ACC"/>
<path d="M17.6913 40.2656L17.666 43.5416H28.0785V73.1291H35.4435V43.5416H45.8563V40.3291C45.8563 38.5509 45.8182 37.0653 45.7676 37.0272C45.7295 36.9766 39.3926 36.9509 31.7104 36.9637L17.7291 37.0019L17.6913 40.2653V40.2656ZM64.5523 36.9087C66.5838 37.4166 68.1332 38.3181 69.5554 39.7912C70.292 40.5787 71.3838 42.0134 71.4729 42.3562C71.4979 42.4578 68.0188 44.7944 65.911 46.1025C65.8348 46.1531 65.5298 45.8231 65.187 45.315C64.1585 43.8166 63.0791 43.1691 61.4282 43.0547C59.0032 42.8897 57.441 44.1594 57.4538 46.28C57.4538 46.9025 57.5426 47.2706 57.7966 47.7784C58.3301 48.8834 59.3204 49.5437 62.4316 50.8897C68.1585 53.3531 70.6091 54.9784 72.1332 57.2897C73.8348 59.8675 74.2157 63.9819 73.0601 67.0422C71.7904 70.3691 68.6413 72.6294 64.2091 73.3784C62.8379 73.6197 59.5873 73.5816 58.1141 73.315C54.9016 72.7437 51.8538 71.1562 49.9745 69.0737C49.2379 68.2612 47.8029 66.1403 47.892 65.9881C47.9301 65.9372 48.2601 65.7341 48.6282 65.5181C48.9838 65.315 50.3301 64.5403 51.5998 63.8041L53.8982 62.4706L54.3807 63.1819C55.0538 64.21 56.5266 65.6197 57.4157 66.0897C59.9679 67.4356 63.4729 67.2453 65.1998 65.6959C65.9363 65.0231 66.241 64.3247 66.241 63.2959C66.241 62.3691 66.1266 61.9628 65.6441 61.2644C65.0223 60.3753 63.7523 59.6262 60.1457 58.0644C56.0188 56.2862 54.241 55.1819 52.6157 53.4294C51.676 52.4137 50.787 50.7881 50.4188 49.4294C50.1141 48.2991 50.0376 45.4675 50.2791 44.3247C51.1301 40.3372 54.1395 37.5562 58.4823 36.7309C59.8916 36.4644 63.1679 36.5659 64.5523 36.9087V36.9087Z" fill="white"/>
</svg>
